#!OML:ASF E:\emotionWalksFemale\Project 1\Capture day 1\Session 1\Female1.ASF
:FULLY-SPECIFIED
:DEGREES
409
root 9.23565 15.0351 -5.81713 -174.773 -4.6642 -180.653
lowerback 26.1649 0.539206 1.36864
upperback -0.534543 0.827152 -0.503257
thorax -15.3506 0.133944 -1.66863
lowerneck -7.45633 -2.7915 -5.84611
upperneck -7.84654 -3.77409 4.57924
head -1.00717 -2.03198 2.40567
rclavicle -6.18717e-015 -3.97569e-015
rhumerus 28.9911 -17.2631 -6.88615
rradius 44.213
rwrist 6.41439
rhand -17.6335 -54.4523
rfingers 7.12502
rthumb 8.62403 -84.2562
lclavicle -6.18717e-015 -3.97569e-015
lhumerus 29.6329 33.1004 18.3732
lradius 32.5212
lwrist -22.7734
lhand -14.9625 -39.832
lfingers 7.12502
lthumb 11.2009 -10.151
rfemur -29.8447 -3.00412 26.6135
rtibia 53.3184
rfoot -19.3368 -17.5089
rtoes -16.4738
lfemur -31.7259 -2.22999 -20.0715
ltibia 48.4387
lfoot -27.0555 10.8141
ltoes -22.9179
410
root 9.23387 15.1691 -5.90731 -175.164 -4.22023 -180.48
lowerback 25.4323 0.632999 1.46026
upperback -0.676201 1.00105 -0.474408
thorax -15.0972 0.219862 -1.74562
lowerneck -7.5671 -2.85565 -5.85003
upperneck -6.89456 -3.78672 4.62382
head -0.680777 -2.00732 2.40328
rclavicle -1.27471e-014 7.15625e-015
rhumerus 26.6115 -15.9904 -6.01909
rradius 43.6844
rwrist 6.54082
rhand -16.9615 -54.2271
rfingers 7.12502
rthumb 9.27245 -84.0032
lclavicle -1.27471e-014 7.15625e-015
lhumerus 26.1362 32.2184 16.3073
lradius 32.473
lwrist -24.1059
lhand -14.5249 -39.4573
lfingers 7.12502
lthumb 11.6229 -9.79963
rfemur -28.5148 -2.5277 26.2885
rtibia 52.178
rfoot -18.6266 -16.6534
rtoes -20.491
lfemur -29.9536 -2.4193 -19.9787
ltibia 46.4257
lfoot -26.7936 11.3711
ltoes -28.5338
411
root 9.2292 15.2831 -5.99158 -175.331 -3.84443 -180.305
lowerback 24.5395 0.633668 1.59266
upperback -0.83544 1.06035 -0.46239
thorax -14.7738 0.253625 -1.81778
lowerneck -7.35747 -2.81621 -5.55005
upperneck -6.47654 -3.73215 4.43576
head -0.594334 -1.96989 2.2852
rclavicle 5.69021e-015 2.5842e-015
rhumerus 24.3346 -14.8354 -5.51026
rradius 43.2654
rwrist 6.83108
rhand -17.3979 -55.0623
rfingers 7.12502
rthumb 8.85141 -84.8566
lclavicle 5.69021e-015 2.5842e-015
lhumerus 21.9027 30.5083 13.397
lradius 32.7633
lwrist -23.8544
lhand -14.6608 -38.9261
lfingers 7.12502
lthumb 11.4918 -9.26112
rfemur -27.4719 -1.96607 25.9786
rtibia 51.0233
rfoot -18.1011 -16.0016
rtoes -21.7503
lfemur -28.5859 -2.70304 -19.9291
ltibia 44.6244
lfoot -26.7333 11.4966
ltoes -31.5299
412
root 9.2271 15.3769 -6.06934 -175.369 -3.48293 -180.147
lowerback 23.6068 0.633083 1.68173
upperback -1.05647 1.11106 -0.418802
thorax -14.4994 0.289253 -1.82469
lowerneck -6.85464 -2.73936 -5.16888
upperneck -6.35863 -3.65788 4.05632
head -0.659035 -1.92952 2.09987
rclavicle 7.1811e-015 1.68967e-015
rhumerus 21.8226 -13.632 -4.8787
rradius 43.0068
rwrist 7.06295
rhand -17.5137 -55.8811
rfingers 7.12502
rthumb 8.73966 -85.6802
lclavicle 7.1811e-015 1.68967e-015
lhumerus 18.3444 29.7515 11.7436
lradius 32.7199
lwrist -24.5275
lhand -14.9152 -38.7451
lfingers 7.12502
lthumb 11.2466 -9.06662
rfemur -26.6231 -1.32435 25.7053
rtibia 49.7814
rfoot -17.6337 -15.8308
rtoes -21.9575
lfemur -27.5293 -3.00326 -19.9283
ltibia 43.0631
lfoot -26.6352 11.2031
ltoes -32.3647
413
root 9.22845 15.459 -6.1446 -175.51 -3.0464 -179.999
lowerback 22.9336 0.679662 1.70165
upperback -1.30722 1.20336 -0.376047
thorax -14.4056 0.343653 -1.8118
lowerneck -7.59937 -2.85496 -4.32406
upperneck -5.08096 -3.8122 3.16497
head -0.16136 -1.99431 1.62912
rclavicle 5.28022e-015 2.28602e-015
rhumerus 18.9038 -11.4113 -3.78397
rradius 43.3911
rwrist 5.6113
rhand -17.2911 -57.8946
rfingers 7.12502
rthumb 8.95449 -87.6846
lclavicle 5.28022e-015 2.28602e-015
lhumerus 13.6559 26.9802 8.96311
lradius 33.8051
lwrist -22.7496
lhand -15.1431 -37.5444
lfingers 7.12502
lthumb 11.0267 -7.85408
rfemur -25.6762 -0.461302 25.441
rtibia 48.3852
rfoot -17.6144 -16.1451
rtoes -21.5291
lfemur -26.4534 -3.2358 -19.9564
ltibia 41.712
lfoot -26.5995 10.5011
ltoes -31.2454
414
root 9.23283 15.5345 -6.2211 -175.675 -2.60255 -179.758
lowerback 22.2667 0.767267 1.82131
upperback -1.51528 1.37167 -0.327232
thorax -14.257 0.424177 -1.87254
lowerneck -6.84651 -2.74032 -4.55771
upperneck -5.34362 -3.64597 3.62053
head -0.359925 -1.90448 1.836
rclavicle -3.16565e-014 2.98177e-016
rhumerus 14.592 -8.21134 -1.84527
rradius 45.3873
rwrist 2.1554
rhand -17.6308 -58.4896
rfingers 7.12502
rthumb 8.62667 -88.2934
lclavicle -3.16565e-014 2.98177e-016
lhumerus 10.4721 25.8944 7.8545
lradius 33.9141
lwrist -22.5926
lhand -15.5449 -37.1884
lfingers 7.12502
lthumb 10.6392 -7.47774
rfemur -24.6692 0.654568 25.2741
rtibia 46.7904
rfoot -17.7426 -16.9378
rtoes -20.998
lfemur -25.4254 -3.32327 -19.9179
ltibia 40.4866
lfoot -26.7587 10.1438
ltoes -31.3405
415
root 9.23916 15.6021 -6.29667 -175.748 -2.16299 -179.543
lowerback 21.3887 0.946399 1.98265
upperback -1.60366 1.66321 -0.24011
thorax -13.836 0.563642 -1.94289
lowerneck -7.08509 -2.84411 -5.01546
upperneck -4.85023 -3.71932 3.9071
head -0.146161 -1.92235 2.00022
rclavicle -2.6662e-014 -3.97569e-016
rhumerus 8.53284 -3.60329 1.09539
rradius 50.6328
rwrist -2.73058
rhand -17.8599 -61.7397
rfingers 7.12502
rthumb 8.40551 91.5524
lclavicle -2.6662e-014 -3.97569e-016
lhumerus 7.6145 25.2391 7.42365
lradius 34.1443
lwrist -22.0707
lhand -15.8278 -36.7956
lfingers 7.12502
lthumb 10.3662 -7.07109
rfemur -23.6892 1.85527 25.1019
rtibia 45.052
rfoot -17.6695 -18.0724
rtoes -20.5251
lfemur -24.5443 -3.32813 -19.9469
ltibia 39.3115
lfoot -27.0574 10.4974
ltoes -33.6751
416
root 9.24548 15.6619 -6.37903 -175.828 -1.842 -179.592
lowerback 20.3625 0.94095 1.71004
upperback -1.77488 1.58451 -0.268165
thorax -13.4481 0.562629 -1.77107
lowerneck -7.36952 -2.69513 -4.66219
upperneck -3.98875 -3.5013 3.84212
head 0.155339 -1.79876 1.91086
rclavicle 1.31819e-014 1.14301e-015
rhumerus 14.6271 -14.6571 -7.95425
rradius 38.7796
rwrist 11.4962
rhand -16.1437 -52.1935
rfingers 7.12502
rthumb 10.0616 -81.933
lclavicle 1.31819e-014 1.14301e-015
lhumerus 4.33027 24.5272 6.46311
lradius 34.3025
lwrist -21.3581
lhand -15.8806 -36.4581
lfingers 7.12502
lthumb 10.3153 -6.73109
rfemur -22.6264 2.85995 24.6833
rtibia 43.2333
rfoot -17.7699 -19.1866
rtoes -19.815
lfemur -23.6 -3.4638 -20.2734
ltibia 38.2148
lfoot -27.4219 10.8372
ltoes -34.8649
417
root 9.25288 15.7084 -6.4641 -175.952 -1.72948 -179.788
lowerback 19.5107 1.09325 1.6871
upperback -1.89363 1.77493 -0.317969
thorax -13.0797 0.662418 -1.85193
lowerneck -7.51921 -2.79221 -5.21481
upperneck -3.5018 -3.56133 4.1727
head 0.357409 -1.80891 2.11173
rclavicle -1.47846e-015 0
rhumerus 10.6144 -13.1515 -6.99771
rradius 41.5685
rwrist 13.6446
rhand -7.61891 -65.6987
rfingers 7.12502
rthumb 18.2755 94.8602
lclavicle -1.47846e-015 0
lhumerus 1.62017 23.6906 6.43193
lradius 34.7729
lwrist -20.3961
lhand -15.6 -36.0783
lfingers 7.12502
lthumb 10.586 -6.36495
rfemur -21.5129 3.62929 24.1463
rtibia 41.3598
rfoot -18.3362 -20.0353
rtoes -18.4257
lfemur -22.6524 -3.76614 -20.7478
ltibia 37.2692
lfoot -27.6389 11.0949
ltoes -35.3711
418
root 9.26307 15.7364 -6.53543 -176.037 -1.57113 -179.733
lowerback 18.9459 1.27123 1.9131
upperback -2.09155 2.07017 -0.32101
thorax -12.9581 0.789555 -2.05927
lowerneck -8.42633 -3.05168 -5.69107
upperneck -2.32364 -3.80362 4.32695
head 0.917437 -1.90345 2.22552
rclavicle -2.70347e-014 8.94531e-016
rhumerus 6.7769 -10.6582 -6.20945
rradius 42.5281
rwrist 8.12685
rhand -13.7157 -79.786
rfingers 7.12502
rthumb 12.4032 109.398
lclavicle -2.70347e-014 8.94531e-016
lhumerus -0.658526 23.7327 6.80868
lradius 34.7468
lwrist -20.0725
lhand -15.4038 -35.8499
lfingers 7.12502
lthumb 10.7753 -6.14627
rfemur -20.5302 4.51867 23.9381
rtibia 39.4187
rfoot -18.8827 -20.8537
rtoes -16.9349
lfemur -21.9797 -4.03153 -20.9224
ltibia 36.538
lfoot -27.7007 11.5425
ltoes -35.6633
419
root 9.2748 15.7528 -6.60031 -176.066 -1.27381 -179.42
lowerback 18.4742 1.42527 2.25977
upperback -2.34469 2.36548 -0.291541
thorax -12.9479 0.906293 -2.29952
lowerneck -8.85739 -3.14977 -6.23606
upperneck -1.6335 -3.85359 4.78729
head 1.24761 -1.90665 2.47157
rclavicle -1.61885e-014 2.5842e-015
rhumerus 3.60377 -10.0962 -6.2815
rradius 42.6289
rwrist 7.37732
rhand -13.984 -78.5728
rfingers 7.12502
rthumb 12.1445 108.2
lclavicle -1.61885e-014 2.5842e-015
lhumerus -3.18888 23.8414 6.93862
lradius 34.8701
lwrist -19.6456
lhand -15.1469 -35.7212
lfingers 7.12502
lthumb 11.0231 -6.03062
rfemur -19.6698 5.55761 24.0599
rtibia 37.3878
rfoot -19.2666 -21.6646
rtoes -16.459
lfemur -21.5215 -4.26775 -20.7849
ltibia 35.9899
lfoot -27.7035 12.344
ltoes -36.428
420
root 9.28836 15.7574 -6.66011 -176.013 -1.01164 -179.051
lowerback 17.824 1.50825 2.52254
upperback -2.52986 2.53654 -0.244859
thorax -12.761 0.976266 -2.42491
lowerneck -9.21165 -3.20829 -6.05259
upperneck -1.20136 -3.92354 4.59884
head 1.44447 -1.93854 2.36783
rclavicle -6.55368e-015 2.28602e-015
rhumerus 0.705999 -9.92711 -6.69091
rradius 42.5684
rwrist 7.19274
rhand -14.2666 -75.8314
rfingers 7.12502
rthumb 11.872 105.475
lclavicle -6.55368e-015 2.28602e-015
lhumerus -5.94159 23.9905 6.836
lradius 35.2234
lwrist -18.9974
lhand -14.49 -35.7716
lfingers 7.12502
lthumb 11.6566 -6.11582
rfemur -18.9455 6.52334 24.2623
rtibia 35.2848
rfoot -19.5616 -22.1328
rtoes -16.2787
lfemur -21.1805 -4.55579 -20.5356
ltibia 35.4803
lfoot -27.6972 12.868
ltoes -36.9069
421
root 9.30242 15.7543 -6.71996 -176.029 -0.62904 -178.886
lowerback 17.0984 1.62489 2.51055
upperback -2.61851 2.67578 -0.24862
thorax -12.4273 1.05324 -2.43274
lowerneck -9.71362 -3.24254 -5.76801
upperneck -0.667588 -3.96588 4.38353
head 1.69667 -1.95631 2.23709
rclavicle -1.37006e-014 -1.44119e-015
rhumerus -1.9655 -10.1924 -7.25415
rradius 42.3046
rwrist 7.87225
rhand -13.6926 -73.1551
rfingers 7.12502
rthumb 12.4255 102.766
lclavicle -1.37006e-014 -1.44119e-015
lhumerus -8.82174 24.3401 6.67791
lradius 35.6812
lwrist -18.1953
lhand -14.0056 -35.7828
lfingers 7.12502
lthumb 12.1237 -6.15407
rfemur -18.1354 7.38755 24.2652
rtibia 33.1343
rfoot -19.4511 -22.3967
rtoes -16.9492
lfemur -20.6264 -4.88961 -20.4944
ltibia 34.8234
lfoot -27.6815 13.0932
ltoes -35.8169
422
root 9.31454 15.7494 -6.79108 -176.331 -0.134596 -179.027
lowerback 16.5227 1.78032 2.25506
upperback -2.67389 2.80083 -0.399022
thorax -12.1477 1.13282 -2.46381
lowerneck -9.83957 -3.15034 -5.75024
upperneck -0.338082 -3.842 4.6576
head 1.83014 -1.8828 2.33135
rclavicle -7.24477e-015 -4.88265e-015
rhumerus -4.58612 -10.2876 -7.96082
rradius 41.9271
rwrist 8.35553
rhand -13.6114 -70.936
rfingers 7.12502
rthumb 12.5038 100.542
lclavicle -7.24477e-015 -4.88265e-015
lhumerus -11.6323 24.856 6.45903
lradius 36.0801
lwrist -17.3514
lhand -13.3691 -35.9442
lfingers 7.12502
lthumb 12.7374 -6.35273
rfemur -16.9115 8.13762 24.0144
rtibia 30.9859
rfoot -19.9793 -22.4443
rtoes -16.0822
lfemur -19.5625 -5.53838 -20.8008
ltibia 33.9378
lfoot -27.3091 13.8295
ltoes -34.765
423
root 9.32828 15.7367 -6.86676 -176.744 0.204589 -179.173
lowerback 16.0305 1.90416 2.01208
upperback -2.78117 2.89988 -0.531451
thorax -11.9786 1.19892 -2.47894
lowerneck -10.3572 -3.1693 -5.25794
upperneck 0.704052 -3.86878 4.15506
head 2.24277 -1.89025 2.06947
rclavicle -2.98612e-014 -2.78299e-015
rhumerus -7.33279 -10.1073 -8.54394
rradius 41.6372
rwrist 8.70566
rhand -14.1424 -69.3372
rfingers 7.12502
rthumb 11.9918 98.9736
lclavicle -2.98612e-014 -2.78299e-015
lhumerus -14.1033 25.6921 6.34592
lradius 36.2018
lwrist -16.9624
lhand -12.5253 -36.2702
lfingers 7.12502
lthumb 13.5507 -6.73117
rfemur -15.5151 8.788 23.818
rtibia 28.8506
rfoot -21.9292 -22.0177
rtoes -10.2727
lfemur -18.3617 -6.512 -21.0835
ltibia 32.8532
lfoot -26.2505 14.9254
ltoes -35.1975
